<svg id="Layer_1" data-name="Layer 1" xmlns="http://www.w3.org/2000/svg" viewBox="0 0 189.82 200" fill="#059669">
  <g>
    <path d="M189.82,11.3q0,10.11-16.15,17a83.83,83.83,0,0,1-32.77,6.17,163.85,163.85,0,0,1-28-2.1q-12-2.1-23.24-4.21Q82.19,27.2,76.48,27t-15.16-.2V78.56Q69.63,80,81.7,81t24.62,1c9.14,0,16.25-.7,21.37-2.1Q138,77,138,70.55c0-2.36-.6-4-1.79-5a7.3,7.3,0,0,0-4.73-1.45,7.21,7.21,0,0,0-2,.33l-1.63.46a2,2,0,0,1-1.47,0c-.43-.26-.49-.87-.16-1.84a12.84,12.84,0,0,1,11.41-8.41c4.68,0,8.26,1.27,10.77,3.81a12.27,12.27,0,0,1,3.26,8.81q0,11.43-17.78,19.57a84.55,84.55,0,0,1-35.71,7.49,205.4,205.4,0,0,1-36.85-3.15v96c0,1.66,1.65,3.51,4.95,5.52q6.62,4,6.94,4.39a1.62,1.62,0,0,1,.5.77,1.74,1.74,0,0,1,.16.65c0,.94-1,1.42-2.94,1.42-1.09.08-4.34,0-9.74-.33s-9.14-.46-11.21-.46q-5.23,0-15.71.66a46.12,46.12,0,0,1-5.56.13c-1.85,0-2.78-.53-2.78-1.58a1.26,1.26,0,0,1,.49-1q.48-.53,7-4.6,5.06-3.15,5.06-5.65V89.6a54.57,54.57,0,0,0-18.43,2.76q-9.3,3.28-9.3,9.33a14.74,14.74,0,0,0,.9,5.51A10.67,10.67,0,0,0,15,111.41c.55.44.82.83.82,1.18,0,.61-.49.92-1.47.92q-3.75.8-8.64-2.23Q0,107.73,0,101.69,0,91,12.39,84.48q11.1-5.92,26.1-5.92V29.43a34.58,34.58,0,0,0-5.88,1.05,40.12,40.12,0,0,0-16,8.67A30.38,30.38,0,0,0,8.81,49.53,19.22,19.22,0,0,0,7.5,56.76v1.57Q7.5,60,6.36,60a2.43,2.43,0,0,1-1.47-.66,13.09,13.09,0,0,1-2.69-4.6A17.06,17.06,0,0,1,1,48.61q0-7.23,7.66-14.85Q17,25.62,31,20.23a119,119,0,0,1,24.46-6.11,194,194,0,0,1,28.38-2,125,125,0,0,1,25.6,2.76l26.42,5.51a114.56,114.56,0,0,0,23,2.76A33.35,33.35,0,0,0,171.55,21q6.19-2.62,6.2-7.62a5.32,5.32,0,0,0-2.28-4.79,4.45,4.45,0,0,0-4.24-.73,12.38,12.38,0,0,1-2.94.79c-.76,0-1-.44-.65-1.31a11.17,11.17,0,0,1,3.26-4.6A10.06,10.06,0,0,1,177.75,0q6.19,0,9.13,3.22A11.53,11.53,0,0,1,189.82,11.3Z"/>
    <g>
      <path d="M107.75,190.54a9.05,9.05,0,0,1-2.79,6.74,10,10,0,0,1-13.66,0,9,9,0,0,1-2.79-6.74,9.65,9.65,0,0,1,16.4-6.87A9.17,9.17,0,0,1,107.75,190.54Z"/>
      <path d="M142.68,190.54a9,9,0,0,1-2.79,6.74,10,10,0,0,1-13.65,0,9,9,0,0,1-2.79-6.74,9.4,9.4,0,0,1,9.62-9.62,9.41,9.41,0,0,1,6.78,2.75A9.16,9.16,0,0,1,142.68,190.54Z"/>
      <path d="M177.62,190.54a9,9,0,0,1-2.79,6.74,10,10,0,0,1-13.65,0,9,9,0,0,1-2.79-6.74,9.38,9.38,0,0,1,9.61-9.62,9.42,9.42,0,0,1,6.79,2.75A9.16,9.16,0,0,1,177.62,190.54Z"/>
    </g>
  </g>
</svg>
