<svg xmlns="http://www.w3.org/2000/svg" viewBox="0 0 200 200"><g id="Layer_2" data-name="Layer 2"><rect x="5" y="5" width="190" height="190" rx="20.96" fill="#059669" stroke="#9ff2ff" stroke-miterlimit="10"/><rect x="5" y="5" width="190" height="190" rx="20.96" fill="none" stroke="#d4b900" stroke-miterlimit="10" stroke-width="10"/></g><g id="Layer_1" data-name="Layer 1"><path d="M109,160.46a7.52,7.52,0,0,1-2.33,5.64,8.34,8.34,0,0,1-11.42,0,7.53,7.53,0,0,1-2.34-5.64,8.08,8.08,0,0,1,13.72-5.75A7.68,7.68,0,0,1,109,160.46Z" transform="translate(0 0)" fill="#d4b900" stroke="#d4b900" stroke-miterlimit="10" stroke-width="5"/><path d="M138.27,160.46a7.53,7.53,0,0,1-2.34,5.64,8.34,8.34,0,0,1-11.42,0,7.53,7.53,0,0,1-2.34-5.64,7.86,7.86,0,0,1,8-8.05,7.89,7.89,0,0,1,5.68,2.3A7.68,7.68,0,0,1,138.27,160.46Z" transform="translate(0 0)" fill="#d4b900" stroke="#d4b900" stroke-miterlimit="10" stroke-width="5"/><path d="M167.5,160.46a7.53,7.53,0,0,1-2.34,5.64,8.34,8.34,0,0,1-11.42,0,7.56,7.56,0,0,1-2.33-5.64,7.86,7.86,0,0,1,8-8.05,7.88,7.88,0,0,1,5.68,2.3A7.68,7.68,0,0,1,167.5,160.46Z" transform="translate(0 0)" fill="#d4b900" stroke="#d4b900" stroke-miterlimit="10" stroke-width="5"/><path d="M179,38.65q0,8.46-13.51,14.18A70.14,70.14,0,0,1,138.09,58a137.09,137.09,0,0,1-23.39-1.76q-10-1.76-19.45-3.52c-4.18-.51-7.87-.82-11-.93s-7.41-.17-12.69-.17V94.94q7,1.2,17.06,2t20.6.82q11.46,0,17.88-1.76,8.58-2.41,8.59-7.81,0-3-1.5-4.17a6.17,6.17,0,0,0-4-1.21,5.79,5.79,0,0,0-1.63.28l-1.37.38a1.7,1.7,0,0,1-1.23,0c-.36-.22-.41-.73-.13-1.54a10.64,10.64,0,0,1,9.55-7q5.87,0,9,3.18a10.24,10.24,0,0,1,2.73,7.36q0,9.57-14.87,16.39a70.71,70.71,0,0,1-29.88,6.26,171.67,171.67,0,0,1-30.84-2.64v52.17q0,2.1,4.15,4.63,5.53,3.34,5.8,3.66a1.38,1.38,0,0,1,.41.65,1.47,1.47,0,0,1,.15.55c0,.79-.83,1.19-2.47,1.19-.91.07-3.63,0-8.14-.28s-7.65-.39-9.38-.39q-4.38,0-13.15.56a38.45,38.45,0,0,1-4.65.11c-1.55,0-2.33-.45-2.33-1.33a1.1,1.1,0,0,1,.41-.88c.28-.29,2.23-1.57,5.87-3.84q4.23-2.64,4.23-4.73V104.17A45.62,45.62,0,0,0,37,106.47c-5.19,1.84-7.77,4.44-7.77,7.81A12.28,12.28,0,0,0,30,118.9a8.74,8.74,0,0,0,2.79,3.51c.45.37.68.7.68,1,0,.52-.41.77-1.23.77q-3.13.66-7.23-1.87c-3.19-2-4.77-4.65-4.77-8q0-8.91,10.36-14.4,9.28-4.95,21.84-4.94V53.82a29.11,29.11,0,0,0-4.91.88A33.58,33.58,0,0,0,34.13,62a25.39,25.39,0,0,0-6.55,8.68,16,16,0,0,0-1.1,6.05V78c0,1-.31,1.43-.95,1.43a2,2,0,0,1-1.23-.55A11,11,0,0,1,22.05,75a14.22,14.22,0,0,1-1-5.16q0-6.06,6.41-12.42,7-6.81,18.69-11.32A99.39,99.39,0,0,1,66.6,41a162.17,162.17,0,0,1,23.74-1.7,104.64,104.64,0,0,1,21.42,2.31q11.05,2.31,22.11,4.62a95.72,95.72,0,0,0,19.24,2.3,27.93,27.93,0,0,0,10.64-1.76q5.17-2.19,5.18-6.37a4.47,4.47,0,0,0-1.91-4,3.71,3.71,0,0,0-3.55-.59,10.78,10.78,0,0,1-2.45.65c-.64,0-.82-.36-.55-1.1a9.41,9.41,0,0,1,2.73-3.85,8.43,8.43,0,0,1,5.73-2.31q5.19,0,7.64,2.7A9.65,9.65,0,0,1,179,38.65Z" transform="translate(0 0)" fill="#d4b900" stroke="#d4b900" stroke-miterlimit="10" stroke-width="5"/></g></svg>